<svg width="113" height="48" viewBox="0 0 113 48" fill="none" xmlns="http://www.w3.org/2000/svg">
<path d="M91.6571 2.15693C81.1841 1.87075 70.4778 2.06544 60.5373 2.72282L58.5938 2.85668C46.2511 3.75492 32.7868 4.03871 19.6206 3.67813C13.9594 3.52094 8.28125 3.28262 3.12287 2.8222C1.83523 2.70662 0.841976 2.50717 0.345945 2.26458C-0.150085 2.02199 -0.111471 1.75456 0.453902 1.51691C1.01927 1.27925 2.06876 1.0893 3.38802 0.985849C4.70728 0.882395 6.19681 0.873241 7.55241 0.960256L8.15695 1.00589C12.2305 1.36185 16.8974 1.55048 21.3382 1.67319C31.8122 1.95872 42.5184 1.76334 52.458 1.10528L54.4015 0.97344C66.7442 0.0752043 80.2085 -0.208586 93.3747 0.151992C98.9511 0.30614 104.776 0.552575 109.872 1.00691C110.537 1.06639 111.129 1.1488 111.616 1.2494C112.103 1.35001 112.474 1.46685 112.709 1.59324C112.944 1.71963 113.038 1.8531 112.986 1.98601C112.933 2.11893 112.736 2.24869 112.404 2.36787C111.723 2.60624 110.55 2.78728 109.134 2.87221C107.719 2.95714 106.175 2.93918 104.833 2.8222C100.72 2.47537 96.1205 2.27964 91.6571 2.15693Z" fill="#03F480"/>
</svg>
