<svg width="360" height="396" viewBox="0 0 360 396" fill="none" xmlns="http://www.w3.org/2000/svg">
<g opacity="0.8">
<path fill-rule="evenodd" clip-rule="evenodd" d="M180 250.156C208.805 250.156 232.156 226.805 232.156 198C232.156 169.195 208.805 145.844 180 145.844C151.195 145.844 127.844 169.195 127.844 198C127.844 226.805 151.195 250.156 180 250.156ZM180 253.054C210.405 253.054 235.054 228.405 235.054 198C235.054 167.595 210.405 142.946 180 142.946C149.595 142.946 124.946 167.595 124.946 198C124.946 228.405 149.595 253.054 180 253.054Z" fill="url(#paint0_radial_1538_6355)"/>
<path fill-rule="evenodd" clip-rule="evenodd" d="M180 288.79C230.142 288.79 270.79 248.142 270.79 198C270.79 147.858 230.142 107.21 180 107.21C129.858 107.21 89.2098 147.858 89.2098 198C89.2098 248.142 129.858 288.79 180 288.79ZM180 291.688C231.742 291.688 273.688 249.742 273.688 198C273.688 146.258 231.742 104.312 180 104.312C128.258 104.312 86.3122 146.258 86.3122 198C86.3122 249.742 128.258 291.688 180 291.688Z" fill="url(#paint1_radial_1538_6355)"/>
<path fill-rule="evenodd" clip-rule="evenodd" d="M180 323.561C249.345 323.561 305.561 267.345 305.561 198C305.561 128.655 249.345 72.439 180 72.439C110.655 72.439 54.439 128.655 54.439 198C54.439 267.345 110.655 323.561 180 323.561ZM180 326.459C250.946 326.459 308.459 268.946 308.459 198C308.459 127.054 250.946 69.5415 180 69.5415C109.054 69.5415 51.5415 127.054 51.5415 198C51.5415 268.946 109.054 326.459 180 326.459Z" fill="url(#paint2_radial_1538_6355)"/>
<path fill-rule="evenodd" clip-rule="evenodd" d="M180 358.332C268.549 358.332 340.332 286.549 340.332 198C340.332 109.451 268.549 37.6683 180 37.6683C91.4512 37.6683 19.6683 109.451 19.6683 198C19.6683 286.549 91.4512 358.332 180 358.332ZM180 361.229C270.149 361.229 343.229 288.149 343.229 198C343.229 107.851 270.149 34.7707 180 34.7707C89.851 34.7707 16.7707 107.851 16.7707 198C16.7707 288.149 89.851 361.229 180 361.229Z" fill="url(#paint3_radial_1538_6355)"/>
<path fill-rule="evenodd" clip-rule="evenodd" d="M180 393.102C287.752 393.102 375.102 305.752 375.102 198C375.102 90.2479 287.752 2.89756 180 2.89756C72.2479 2.89756 -15.1024 90.2479 -15.1024 198C-15.1024 305.752 72.2479 393.102 180 393.102ZM180 396C289.352 396 378 307.352 378 198C378 88.6476 289.352 0 180 0C70.6476 0 -18 88.6476 -18 198C-18 307.352 70.6476 396 180 396Z" fill="url(#paint4_radial_1538_6355)"/>
</g>
<defs>
<radialGradient id="paint0_radial_1538_6355" cx="0" cy="0" r="1" gradientUnits="userSpaceOnUse" gradientTransform="translate(180 27.0332) rotate(90) scale(324.538)">
<stop offset="0.2" stop-color="#00091B" stop-opacity="0.15"/>
<stop offset="0.545" stop-color="#92B2F9" stop-opacity="0.12"/>
<stop offset="0.7" stop-color="#06112A" stop-opacity="0.26"/>
</radialGradient>
<radialGradient id="paint1_radial_1538_6355" cx="0" cy="0" r="1" gradientUnits="userSpaceOnUse" gradientTransform="translate(180 27.0332) rotate(90) scale(324.538)">
<stop offset="0.2" stop-color="#00091B" stop-opacity="0.15"/>
<stop offset="0.545" stop-color="#92B2F9" stop-opacity="0.12"/>
<stop offset="0.7" stop-color="#06112A" stop-opacity="0.26"/>
</radialGradient>
<radialGradient id="paint2_radial_1538_6355" cx="0" cy="0" r="1" gradientUnits="userSpaceOnUse" gradientTransform="translate(180 27.0332) rotate(90) scale(324.538)">
<stop offset="0.2" stop-color="#00091B" stop-opacity="0.15"/>
<stop offset="0.545" stop-color="#92B2F9" stop-opacity="0.12"/>
<stop offset="0.7" stop-color="#06112A" stop-opacity="0.26"/>
</radialGradient>
<radialGradient id="paint3_radial_1538_6355" cx="0" cy="0" r="1" gradientUnits="userSpaceOnUse" gradientTransform="translate(180 27.0332) rotate(90) scale(324.538)">
<stop offset="0.2" stop-color="#00091B" stop-opacity="0.15"/>
<stop offset="0.545" stop-color="#92B2F9" stop-opacity="0.12"/>
<stop offset="0.7" stop-color="#06112A" stop-opacity="0.26"/>
</radialGradient>
<radialGradient id="paint4_radial_1538_6355" cx="0" cy="0" r="1" gradientUnits="userSpaceOnUse" gradientTransform="translate(180 27.0332) rotate(90) scale(324.538)">
<stop offset="0.2" stop-color="#00091B" stop-opacity="0.15"/>
<stop offset="0.545" stop-color="#92B2F9" stop-opacity="0.12"/>
<stop offset="0.7" stop-color="#06112A" stop-opacity="0.26"/>
</radialGradient>
</defs>
</svg>
