<svg width="20" height="20" viewBox="0 0 20 20" fill="none" xmlns="http://www.w3.org/2000/svg">
<path d="M12.227 14.4376L9.91001 12.1216L3.53601 18.4956C3.35028 18.6814 3.12977 18.8288 2.88707 18.9293C2.64436 19.0299 2.38423 19.0816 2.12151 19.0816C1.8588 19.0816 1.59866 19.0299 1.35596 18.9293C1.11325 18.8288 0.892742 18.6814 0.707014 18.4956L1.35447e-05 17.7886L12.227 5.56158C11.8646 4.70695 11.8107 3.75288 12.0746 2.86288C12.3385 1.97289 12.9037 1.20239 13.6734 0.683435C14.4431 0.16448 15.3693 -0.0706143 16.2933 0.0184418C17.2174 0.107498 18.0816 0.515161 18.738 1.17156C19.3944 1.82797 19.8021 2.69224 19.8912 3.61625C19.9802 4.54026 19.7451 5.46648 19.2262 6.23616C18.7072 7.00584 17.9367 7.57107 17.0467 7.83496C16.1567 8.09885 15.2026 8.04498 14.348 7.68258L12.031 9.99958L14.348 12.3166C15.2027 11.9543 16.1568 11.9006 17.0468 12.1646C17.9368 12.4286 18.7072 12.994 19.2261 13.7638C19.7449 14.5336 19.9798 15.4599 19.8906 16.384C19.8013 17.308 19.3934 18.1722 18.7368 18.8285C18.0803 19.4847 17.2159 19.8922 16.2918 19.981C15.3677 20.0699 14.4415 19.8345 13.672 19.3153C12.9024 18.7961 12.3374 18.0254 12.0738 17.1353C11.8101 16.2452 11.8643 15.2921 12.227 14.4376ZM15.91 13.9996C15.3796 13.9996 14.8709 14.2103 14.4958 14.5854C14.1207 14.9604 13.91 15.4691 13.91 15.9996C13.91 16.53 14.1207 17.0387 14.4958 17.4138C14.8709 17.7889 15.3796 17.9996 15.91 17.9996C16.4404 17.9996 16.9492 17.7889 17.3242 17.4138C17.6993 17.0387 17.91 16.53 17.91 15.9996C17.91 15.4691 17.6993 14.9604 17.3242 14.5854C16.9492 14.2103 16.4404 13.9996 15.91 13.9996ZM15.91 1.99958C15.3796 1.99958 14.8709 2.21029 14.4958 2.58536C14.1207 2.96044 13.91 3.46914 13.91 3.99958C13.91 4.53001 14.1207 5.03872 14.4958 5.41379C14.8709 5.78886 15.3796 5.99958 15.91 5.99958C16.4404 5.99958 16.9492 5.78886 17.3242 5.41379C17.6993 5.03872 17.91 4.53001 17.91 3.99958C17.91 3.46914 17.6993 2.96044 17.3242 2.58537C16.9492 2.21029 16.4404 1.99958 15.91 1.99958ZM6.37502 8.58658L1.49065e-05 2.21158L0.707016 1.50458C0.892744 1.31877 1.11326 1.17138 1.35596 1.07082C1.59866 0.970263 1.8588 0.918503 2.12152 0.918503C2.38423 0.918503 2.64437 0.970263 2.88707 1.07082C3.12977 1.17138 3.35029 1.31877 3.53601 1.50458L8.49602 6.46458L6.37502 8.58658Z" fill="white"/>
</svg>
