<svg width="41" height="40" viewBox="0 0 41 40" fill="none" xmlns="http://www.w3.org/2000/svg">
<circle cx="20.5" cy="19.9997" r="18.7097" fill="black"/>
<g clip-path="url(#clip0_1538_6359)">
<path d="M20.499 0.0655518C9.48733 0.0655518 0.560181 8.99246 0.560181 20.0041C0.560181 31.0163 9.48733 39.9425 20.499 39.9425C31.5119 39.9425 40.438 31.0163 40.438 20.0041C40.438 8.99317 31.5119 0.0665041 20.4988 0.0665041L20.499 0.0655518ZM29.6428 28.8227C29.2857 29.4084 28.519 29.5941 27.9333 29.2346C23.2519 26.3751 17.3585 25.7275 10.418 27.3132C9.74923 27.4656 9.08256 27.0465 8.93018 26.3775C8.77709 25.7084 9.19447 25.0417 9.86494 24.8894C17.4602 23.1534 23.9752 23.9013 29.2309 27.1132C29.8166 27.4727 30.0023 28.237 29.6428 28.8227ZM32.0833 23.3929C31.6333 24.1251 30.6761 24.356 29.9452 23.906C24.5857 20.611 16.4159 19.657 10.0766 21.5813C9.25447 21.8296 8.38613 21.3663 8.13661 20.5456C7.88899 19.7234 8.35256 18.8567 9.17328 18.6067C16.4145 16.4096 25.4166 17.4739 31.5714 21.256C32.3023 21.706 32.5333 22.6629 32.0833 23.3929ZM32.2928 17.7396C25.8666 13.9227 15.2642 13.5717 9.12875 15.4339C8.14352 15.7327 7.10161 15.1765 6.80304 14.1913C6.50447 13.2056 7.06018 12.1644 8.04613 11.8648C15.0892 9.72674 26.7976 10.1398 34.1961 14.532C35.0842 15.0579 35.3747 16.2025 34.8485 17.0875C34.3247 17.9736 33.1771 18.2658 32.2938 17.7396H32.2928Z" fill="#1ED760"/>
</g>
<defs>
<clipPath id="clip0_1538_6359">
<rect width="40" height="40" fill="white" transform="translate(0.5)"/>
</clipPath>
</defs>
</svg>
