<svg width="20" height="20" viewBox="0 0 20 20" fill="none" xmlns="http://www.w3.org/2000/svg">
<path id="Spotify" fill-rule="evenodd" clip-rule="evenodd" d="M-0.00012207 9.99973C-0.00012207 4.48591 4.48589 0 10 0C15.5141 0 20.0001 4.48591 20.0001 9.99973C20.0001 15.5139 15.5141 20 10 20C4.48589 20 -0.00012207 15.5139 -0.00012207 9.99973ZM1.6055 9.99973C1.6055 14.6286 5.37123 18.3944 10 18.3944C14.6287 18.3944 18.3945 14.6286 18.3945 9.99973C18.3945 5.37114 14.6287 1.60552 10 1.60552C5.37123 1.60552 1.6055 5.37114 1.6055 9.99973ZM15.3594 7.03626C11.1841 5.10662 5.31992 5.96285 5.07233 6.00021C4.6341 6.06646 4.33256 6.47526 4.39861 6.91349C4.46465 7.35172 4.87388 7.65411 5.31178 7.58785C5.36777 7.57939 10.9519 6.76823 14.6858 8.49374C14.7947 8.54416 14.9094 8.56803 15.0221 8.56803C15.3254 8.56803 15.6157 8.39527 15.7514 8.10186C15.9374 7.69928 15.7618 7.2223 15.3594 7.03626ZM5.42584 9.11755C5.64967 9.08384 10.9504 8.30971 14.7303 10.0565C15.1328 10.2426 15.3084 10.7196 15.1224 11.1221C14.9867 11.4156 14.6964 11.5883 14.3931 11.5884C14.2803 11.5884 14.1659 11.5645 14.0567 11.5141C10.7183 9.97132 5.71539 10.6977 5.66529 10.7053C5.22717 10.7711 4.81806 10.4692 4.75212 10.0308C4.68608 9.5926 4.98761 9.18381 5.42584 9.11755ZM5.6112 12.1192C5.80783 12.0896 10.4665 11.4092 13.7949 12.9474C14.1973 13.1334 14.3728 13.6105 14.1868 14.013C14.0512 14.3064 13.7609 14.4791 13.4576 14.4792C13.3449 14.4792 13.2302 14.4553 13.1212 14.4049C10.2254 13.0665 5.89443 13.7002 5.85097 13.7069C5.41285 13.7728 5.00352 13.4714 4.93726 13.0329C4.871 12.5945 5.17275 12.1855 5.6112 12.1192Z" fill="white"/>
</svg>
