<svg width="25" height="24" viewBox="0 0 25 24" fill="none" xmlns="http://www.w3.org/2000/svg">
<g id="icon/youtube">
<path id="vector" fill-rule="evenodd" clip-rule="evenodd" d="M20.2921 5.41459C21.1522 5.64565 21.8325 6.32601 22.0636 7.18609C22.4872 8.7522 22.5001 11.9999 22.5001 11.9999C22.5001 11.9999 22.5001 15.2605 22.0764 16.8138C21.8454 17.6739 21.165 18.3542 20.3049 18.5853C18.7517 19.0089 12.5001 19.0089 12.5001 19.0089C12.5001 19.0089 6.24846 19.0089 4.69518 18.5853C3.83511 18.3542 3.15475 17.6739 2.92368 16.8138C2.50006 15.2477 2.50006 11.9999 2.50006 11.9999C2.50006 11.9999 2.50006 8.7522 2.91084 7.19893C3.14191 6.33885 3.82227 5.65849 4.68235 5.42743C6.23562 5.0038 12.4872 4.99097 12.4872 4.99097C12.4872 4.99097 18.7388 4.99097 20.2921 5.41459ZM15.6836 12L10.4975 15.0038V8.9961L15.6836 12Z" fill="white"/>
</g>
</svg>
